<svg width="65" height="65" viewBox="0 0 65 65" fill="none" xmlns="http://www.w3.org/2000/svg">
<rect width="65" height="65" rx="32.5" fill="#F9F7F3" fill-opacity="0.3"/>
<path d="M38.2842 22.1091C38.397 21.9897 38.4851 21.8493 38.5436 21.6959C38.6022 21.5425 38.6299 21.3791 38.6252 21.215C38.6206 21.0508 38.5837 20.8892 38.5166 20.7394C38.4495 20.5895 38.3535 20.4543 38.2342 20.3416C38.1148 20.2288 37.9745 20.1406 37.821 20.0821C37.6676 20.0236 37.5042 19.9959 37.3401 20.0005C37.1759 20.0051 37.0143 20.0421 36.8645 20.1092C36.7146 20.1763 36.5795 20.2722 36.4667 20.3916L25.8417 31.6416C25.6223 31.8736 25.5 32.1809 25.5 32.5003C25.5 32.8197 25.6223 33.127 25.8417 33.3591L36.4667 44.6103C36.5787 44.7323 36.7139 44.8307 36.8643 44.9C37.0147 44.9693 37.1773 45.008 37.3428 45.0139C37.5083 45.0198 37.6733 44.9927 37.8283 44.9343C37.9832 44.8758 38.125 44.7872 38.2454 44.6735C38.3658 44.5598 38.4624 44.4233 38.5296 44.272C38.5969 44.1206 38.6333 43.9574 38.6369 43.7919C38.6405 43.6263 38.6112 43.4617 38.5506 43.3076C38.4901 43.1534 38.3995 43.0129 38.2842 42.8941L28.4692 32.5003L38.2842 22.1091Z" fill="white"/>
</svg>
