<svg width="120" height="120" viewBox="0 0 120 120" fill="none" xmlns="http://www.w3.org/2000/svg">
<path d="M53.0015 6.857C56.8896 3.04754 63.1104 3.04754 66.9985 6.857L68.7066 8.5306C71.2065 10.9799 74.8049 11.9441 78.1945 11.0729L80.5106 10.4776C85.7825 9.12251 91.1699 12.2329 92.6324 17.4761L93.2749 19.7795C94.2151 23.1506 96.8494 25.7849 100.22 26.7251L102.524 27.3676C107.767 28.8301 110.877 34.2175 109.522 39.4894L108.927 41.8055C108.056 45.1951 109.02 48.7935 111.469 51.2934L113.143 53.0015C116.952 56.8896 116.952 63.1104 113.143 66.9985L111.469 68.7066C109.02 71.2065 108.056 74.8049 108.927 78.1945L109.522 80.5106C110.877 85.7825 107.767 91.1699 102.524 92.6324L100.22 93.2749C96.8494 94.2151 94.2151 96.8494 93.2749 100.22L92.6324 102.524C91.1699 107.767 85.7825 110.877 80.5106 109.522L78.1945 108.927C74.8049 108.056 71.2065 109.02 68.7066 111.469L66.9985 113.143C63.1104 116.952 56.8896 116.952 53.0015 113.143L51.2934 111.469C48.7935 109.02 45.1951 108.056 41.8055 108.927L39.4894 109.522C34.2175 110.877 28.8301 107.767 27.3676 102.524L26.7251 100.22C25.7849 96.8494 23.1506 94.2151 19.7795 93.2749L17.4761 92.6324C12.2329 91.1699 9.12251 85.7825 10.4776 80.5106L11.0729 78.1945C11.9441 74.8049 10.9799 71.2065 8.5306 68.7066L6.857 66.9985C3.04754 63.1104 3.04754 56.8896 6.857 53.0015L8.5306 51.2934C10.9799 48.7935 11.9441 45.1951 11.0729 41.8055L10.4776 39.4894C9.12251 34.2175 12.2329 28.8301 17.4761 27.3676L19.7795 26.7251C23.1506 25.7849 25.7849 23.1506 26.7251 19.7795L27.3676 17.4761C28.8301 12.2329 34.2175 9.12251 39.4894 10.4776L41.8055 11.0729C45.1951 11.9441 48.7935 10.9799 51.2934 8.5306L53.0015 6.857Z" fill="#A68E72"/>
<rect x="20.5" y="20.5" width="79" height="79" rx="39.5" stroke="#F9F7F3"/>
<path d="M35.2809 52.874C35.2809 57.032 32.5989 59.93 27.9369 61.226L27.1629 59.678C30.7449 58.706 32.8329 56.816 33.1569 54.458H28.0089V52.874H35.2809ZM38.3949 51.92H40.3749V60.956H38.3949V57.464H35.3529V55.844H38.3949V51.92ZM29.8989 61.604H40.3749V67.742H29.8989V61.604ZM38.4309 63.17H31.8429V66.176H38.4309V63.17ZM42.8054 59.426H57.2774V60.992H42.8054V59.426ZM50.0234 62.072C53.4614 62.072 55.5494 63.152 55.5494 65.006C55.5494 66.878 53.4614 67.958 50.0234 67.958C46.5674 67.958 44.4794 66.878 44.4794 65.006C44.4794 63.152 46.5674 62.072 50.0234 62.072ZM50.0234 63.602C47.7194 63.602 46.4774 64.088 46.4774 65.006C46.4774 65.942 47.7194 66.41 50.0234 66.41C52.3094 66.41 53.5514 65.942 53.5514 65.006C53.5514 64.088 52.3094 63.602 50.0234 63.602ZM44.1194 52.712H55.9814V54.296H51.4274C51.7154 55.628 53.5874 56.834 56.5934 57.122L55.8914 58.67C53.0114 58.382 50.8874 57.23 50.0414 55.61C49.1954 57.23 47.0714 58.382 44.1734 58.67L43.4894 57.122C46.4774 56.834 48.3674 55.628 48.6554 54.296H44.1194V52.712ZM67.4922 52.604C69.7962 52.604 71.4522 53.9 71.4522 55.826C71.4522 57.446 70.2642 58.616 68.5002 58.94V60.272C69.8322 60.2 71.1642 60.074 72.3882 59.894L72.5322 61.316C69.2562 61.928 65.5662 61.964 62.8662 61.964L62.6322 60.398C63.7842 60.398 65.1162 60.398 66.5202 60.344V58.958C64.7202 58.634 63.5142 57.464 63.5142 55.826C63.5142 53.9 65.1702 52.604 67.4922 52.604ZM67.4922 54.098C66.2142 54.098 65.3502 54.764 65.3502 55.826C65.3502 56.906 66.2142 57.554 67.4922 57.554C68.7522 57.554 69.6162 56.906 69.6162 55.826C69.6162 54.764 68.7522 54.098 67.4922 54.098ZM73.2882 51.938H75.2682V57.104H77.4282V58.724H75.2682V64.16H73.2882V51.938ZM64.8102 63.116H66.8082V66.032H75.8262V67.634H64.8102V63.116ZM78.4186 64.484H82.2346V61.802H80.1466V56.582H89.2726V54.584H80.1106V53.018H91.2346V58.13H82.0906V60.218H91.5946V61.802H89.2546V64.484H92.9266V66.086H78.4186V64.484ZM84.1786 64.484H87.3286V61.802H84.1786V64.484Z" fill="#F9F7F3"/>
</svg>
